<?xml version="1.0" standalone="no"?>
<!DOCTYPE svg PUBLIC "-//W3C//DTD SVG 20010904//EN"
 "http://www.w3.org/TR/2001/REC-SVG-20010904/DTD/svg10.dtd">
<svg version="1.0" xmlns="http://www.w3.org/2000/svg"
 width="225.000000pt" height="225.000000pt" viewBox="0 0 225.000000 225.000000"
 preserveAspectRatio="xMidYMid meet">

<g transform="translate(0.000000,225.000000) scale(0.100000,-0.100000)"
fill="#000000" stroke="none">
<path d="M572 1653 c3 -24 8 -28 38 -31 51 -5 60 -17 60 -82 0 -59 5 -74 139
-449 26 -72 41 -131 41 -161 0 -82 -8 -80 343 -80 195 0 308 4 312 10 3 6 3
19 0 30 -6 19 -16 20 -289 20 -303 0 -306 0 -306 52 l0 28 288 0 c215 0 292 3
305 13 20 15 171 432 163 452 -5 13 -65 15 -439 15 -424 0 -435 0 -461 21 -22
17 -26 28 -26 69 0 52 -14 100 -33 112 -7 4 -40 8 -75 8 -63 0 -63 0 -60 -27z
m1015 -255 c-2 -7 -31 -88 -63 -180 l-59 -168 -287 0 -286 0 -10 28 c-52 144
-112 316 -112 323 0 5 171 9 411 9 325 0 410 -3 406 -12z"/>
<path d="M904 760 c-33 -13 -54 -50 -54 -93 0 -88 108 -131 171 -68 79 79 -12
204 -117 161z m71 -66 c19 -20 16 -43 -7 -58 -21 -13 -51 2 -56 26 -3 16 23
48 38 48 5 0 16 -7 25 -16z"/>
<path d="M1342 745 c-72 -60 -33 -175 61 -175 49 0 73 13 92 50 24 46 19 78
-19 116 -43 43 -90 46 -134 9z m88 -49 c16 -21 9 -60 -13 -64 -40 -8 -64 47
-29 67 23 14 28 13 42 -3z"/>
</g>
</svg>
