<?xml version="1.0" standalone="no"?>
<!DOCTYPE svg PUBLIC "-//W3C//DTD SVG 20010904//EN"
 "http://www.w3.org/TR/2001/REC-SVG-20010904/DTD/svg10.dtd">
<svg version="1.0" xmlns="http://www.w3.org/2000/svg"
 width="311.000000pt" height="292.000000pt" viewBox="0 0 311.000000 292.000000"
 preserveAspectRatio="xMidYMid meet">

<g transform="translate(0.000000,292.000000) scale(0.100000,-0.100000)"
fill="#000000" stroke="none">
<path d="M1655 2839 c-177 -17 -322 -64 -560 -179 -183 -89 -284 -223 -245
-325 15 -39 40 -189 40 -242 l0 -43 55 0 c29 0 76 4 102 9 79 15 264 34 270
27 3 -3 0 -13 -8 -22 -13 -16 -12 -16 8 -4 12 8 32 27 45 44 13 17 48 56 78
87 49 51 61 57 109 64 59 8 76 -3 64 -40 -3 -11 -8 -27 -10 -35 -3 -8 4 -2 14
13 13 17 58 47 121 77 77 38 117 66 170 118 l70 67 -30 75 c-26 66 -44 107
-80 185 -5 11 -27 33 -49 50 -27 20 -39 36 -37 49 4 26 -34 33 -127 25z m136
-66 c50 -41 59 -54 59 -88 0 -67 -92 -141 -299 -243 -56 -28 -119 -56 -139
-63 -20 -6 -42 -15 -47 -20 -38 -29 -287 -74 -362 -65 -114 13 -148 46 -123
121 19 58 97 103 360 210 82 33 487 165 507 165 13 0 32 -8 44 -17z"/>
<path d="M1994 2393 c-27 -84 -73 -142 -159 -199 -50 -32 -229 -104 -262 -104
-9 0 -24 -6 -32 -14 -9 -7 -29 -19 -46 -25 l-30 -11 28 5 c18 4 26 2 22 -4 -3
-6 0 -8 8 -5 19 7 107 -32 107 -48 0 -19 -30 -59 -40 -53 -4 3 -13 -2 -20 -10
-22 -27 -75 -18 -127 22 -26 20 -50 39 -53 42 -3 4 -23 5 -45 4 -56 -2 -55 -2
-55 -12 0 -21 -75 -120 -128 -169 -76 -72 -101 -81 -208 -80 -49 1 -104 -2
-123 -6 -47 -11 -36 1 66 69 117 79 194 137 189 142 -2 2 -24 -1 -48 -7 -61
-16 -108 4 -132 54 l-17 36 -32 -16 c-18 -9 -65 -44 -105 -76 -136 -110 -410
-281 -485 -304 -35 -10 -131 -65 -144 -83 -7 -9 -13 -33 -13 -53 0 -39 13 -58
59 -88 l23 -15 -40 -65 c-152 -252 -116 -508 110 -771 90 -104 130 -141 233
-211 168 -113 350 -191 580 -247 158 -38 232 -50 396 -60 270 -18 545 21 830
118 139 47 208 81 354 177 139 91 311 263 362 363 10 20 26 48 36 63 35 54 7
27 -32 -30 -118 -171 -341 -334 -584 -429 -23 -9 -47 -20 -53 -25 -8 -6 -13
19 -18 84 -4 51 -11 122 -16 158 -10 62 -13 68 -66 116 -30 28 -94 70 -142 94
-173 86 -307 192 -346 275 -21 43 -37 164 -30 217 l6 44 48 -23 c44 -21 48
-26 54 -65 4 -28 -1 -67 -13 -111 -16 -58 -17 -69 -4 -74 17 -7 83 3 94 14 4
4 -4 51 -17 103 -13 52 -22 101 -19 108 11 28 -5 39 -50 34 -38 -4 -50 0 -86
27 -24 17 -48 31 -55 31 -7 0 -14 4 -16 9 -1 5 -16 13 -33 16 -25 6 -23 3 13
-15 32 -17 41 -27 37 -40 -9 -29 -7 -141 4 -198 12 -62 75 -173 123 -219 37
-36 123 -90 178 -113 70 -28 82 -37 65 -44 -9 -3 -27 -6 -39 -6 -43 0 -207
-124 -278 -210 -20 -25 -53 -63 -74 -85 -33 -36 -92 -109 -186 -233 -18 -23
-40 -42 -50 -42 -15 0 -51 44 -115 140 -48 71 -260 294 -331 348 -40 30 -98
65 -127 77 -61 25 -65 18 45 68 85 38 151 87 192 141 70 93 98 174 98 279 l0
66 58 16 c69 19 165 58 294 119 53 25 100 46 105 46 5 0 55 27 113 61 58 34
121 70 140 81 19 11 44 28 55 38 11 10 31 23 45 30 27 14 179 127 195 146 6 6
26 22 45 34 19 13 51 37 71 53 36 30 84 43 94 26 3 -5 -1 -6 -10 -3 -12 5 -9
-4 9 -31 33 -48 33 -85 1 -170 -34 -88 -27 -147 25 -225 55 -83 73 -135 65
-192 -8 -58 -33 -96 -135 -208 -42 -47 -82 -95 -89 -107 -16 -32 -14 -124 4
-151 9 -12 36 -59 60 -104 61 -113 57 -87 -6 40 -47 95 -51 109 -47 158 5 54
6 56 105 157 114 117 146 172 146 253 0 43 -8 69 -37 124 -20 38 -36 71 -36
72 0 2 17 12 38 23 186 97 355 248 442 395 70 119 104 258 77 322 -21 49 -49
66 -136 78 -40 5 -80 14 -89 19 -33 16 -169 31 -387 41 -121 6 -264 15 -318
20 -127 13 -127 13 -133 -7z m985 -168 c27 -80 -30 -240 -126 -360 -51 -62
-168 -166 -231 -204 -75 -45 -155 -91 -158 -91 -12 0 -1 67 16 105 44 97 34
175 -31 229 l-29 25 78 60 c42 34 95 76 117 94 133 109 272 190 319 185 26 -3
33 -9 45 -43z m-2647 -929 c99 -53 196 -85 293 -96 50 -5 98 -10 108 -10 14 0
7 -15 -33 -72 -73 -104 -67 -153 26 -213 31 -20 58 -34 61 -31 3 2 -13 16 -35
30 -47 29 -82 71 -82 98 0 31 36 90 82 136 l44 43 118 10 c65 5 120 8 123 6 2
-3 -1 -15 -7 -28 -5 -13 -14 -50 -19 -82 -10 -69 -2 -82 59 -92 47 -8 71 6 63
35 -3 11 0 20 6 20 6 0 11 7 11 15 0 11 -7 14 -25 9 -22 -5 -27 -1 -40 30 -16
38 -20 92 -7 99 4 3 31 8 61 12 l54 7 -7 -62 c-4 -34 -16 -92 -28 -128 -18
-59 -29 -75 -94 -139 -59 -57 -104 -89 -217 -150 -205 -112 -262 -172 -274
-288 -5 -43 -9 -52 -22 -48 -16 4 -73 44 -166 118 -69 53 -215 218 -215 241 0
4 -9 17 -20 29 -30 32 -62 132 -62 195 -1 68 30 156 78 226 33 47 91 114 100
114 2 0 32 -15 66 -34z m725 -262 c-9 -9 -28 6 -21 18 4 6 10 6 17 -1 6 -6 8
-13 4 -17z m48 -24 c-3 -5 -11 -10 -16 -10 -6 0 -7 5 -4 10 3 6 11 10 16 10 6
0 7 -4 4 -10z"/>
<path d="M1233 1983 c9 -2 23 -2 30 0 6 3 -1 5 -18 5 -16 0 -22 -2 -12 -5z"/>
<path d="M1144 1944 c-18 -14 -18 -15 4 -4 12 6 22 13 22 15 0 8 -5 6 -26 -11z"/>
<path d="M998 1943 c7 -3 16 -2 19 1 4 3 -2 6 -13 5 -11 0 -14 -3 -6 -6z"/>
</g>
</svg>
